<svg width="169" height="133" viewBox="0 0 169 133" fill="none" xmlns="http://www.w3.org/2000/svg">
<path d="M122.617 15.5L139.117 0L106.117 10C98.9165 6.8 89.1165 8.66667 85.1165 10L49.1165 7.5L73.1165 19.5C51.1165 51.9 56.2832 75.6667 61.6165 83.5C32.8165 85.5 9.61655 98 1.61655 104C-5.38345 112.5 12.6165 121 12.6165 118.5C12.6165 116.5 22.9499 113.333 28.1165 112C42.5165 111.6 38.1166 113.167 34.1166 114C25.7166 114 17.2832 118.667 14.1165 121C10.5165 128.6 28.9499 127.5 38.6166 126C46.6166 120.5 74.6165 115.5 58.1166 119.5C44.9165 122.7 44.6166 127.167 46.1166 129C56.1166 139.4 97.6165 123.333 117.117 114H168.617C164.617 96.8 146.283 83.5 137.617 79C156.817 63.8 150.617 48.6667 145.117 43L143.5 35.5C147.1 30.7 143.167 30.8333 140.5 30.5C136.9 23.7 128.45 18.8333 124.117 18.5C122.117 18.1 122.283 16.3333 122.617 15.5Z" fill="#D9D9D9"/>
<path d="M122.617 15.5L139.117 0L106.117 10C98.9165 6.8 89.1165 8.66667 85.1165 10L49.1165 7.5L73.1165 19.5C51.1165 51.9 56.2832 75.6667 61.6165 83.5C32.8165 85.5 9.61655 98 1.61655 104C-5.38345 112.5 12.6165 121 12.6165 118.5C12.6165 116.5 22.9499 113.333 28.1165 112C42.5165 111.6 38.1166 113.167 34.1166 114C25.7166 114 17.2832 118.667 14.1165 121C10.5165 128.6 28.9499 127.5 38.6166 126C46.6166 120.5 74.6165 115.5 58.1166 119.5C44.9165 122.7 44.6166 127.167 46.1166 129C56.1166 139.4 97.6165 123.333 117.117 114H168.617C164.617 96.8 146.283 83.5 137.617 79C156.817 63.8 150.617 48.6667 145.117 43L143.5 35.5C147.1 30.7 143.167 30.8333 140.5 30.5C136.9 23.7 128.45 18.8333 124.117 18.5C122.117 18.1 122.283 16.3333 122.617 15.5Z" fill="#FF4C46"/>
<path d="M104.5 30.5C110.9 22.9 120.5 19.3333 124.5 18.5C135.7 18.5 140.5 25.5 141.5 29C147.1 28.6 146.167 32.5 145 34.5V44C144.2 53.2 133.333 57.5 128 58.5C122 60.9 111.833 52.1667 107.5 47.5L106.5 48.5C106.1 52.5 104 58.8333 103 61.5C101 67.1 89.8333 70.1667 84.5 71C76.1 71 68.6667 62.6667 66 58.5C58.8 55.7 62.3333 50.6667 65 48.5C68.2 22.9 92.6667 25.8333 104.5 30.5Z" fill="white"/>
<path d="M120.5 21.5C130.5 17.9 138 23.6667 140.5 27L141.5 29.5C147.5 29.5 145.667 33.5 144 35.5C144.4 42.3 141.833 47 140.5 48.5C139.167 50.8333 134.4 55.6 126 56C117.6 56.4 110.5 47.8333 108 43.5L104 45C105.2 50.6 103.5 56.6667 102.5 59C100.167 62.5 93.3 69.5 84.5 69.5C75.7 69.5 69.5 61.5 67.5 57.5C60.7 54.7 63.6667 51 66 49.5C66.6667 45.1667 70.6 35.6 81 32C91.4 28.4 99.6667 36.5 102.5 41L108 40C108 35.3333 110.5 25.1 120.5 21.5Z" fill="#FF4C46"/>
<path d="M101 50C101 58.8366 93.8366 66 85 66C76.1634 66 69 58.8366 69 50C69 41.1634 76.1634 34 85 34C93.8366 34 101 41.1634 101 50Z" fill="white"/>
<path d="M143 38C143 46.8366 135.837 54 127 54C118.163 54 111 46.8366 111 38C111 29.1634 118.163 22 127 22C135.837 22 143 29.1634 143 38Z" fill="white"/>
<path d="M104 94V98.5L115 102.5L119.5 114H131L133.5 94H104Z" fill="#42D49C"/>
<path d="M125.5 102C122.3 102.4 122.5 110.833 123 115H129C129.4 103.8 126.833 101.667 125.5 102Z" fill="white"/>
<path d="M102.5 85.5C101 95 103 93.5 103.5 94H134C134.8 94.4 135.333 93.5 135.5 93V87C135.5 85 133.167 84.8333 132 85V79C125.2 79.4 109.5 83.5 102.5 85.5Z" fill="white"/>
<path d="M40.5 102C111.3 92 121 106.5 117 115H119C120.6 111 119 106.333 118 104.5C111.2 92.5 65.5 96.1667 43.5 99.5C39.9 99.9 40 101.333 40.5 102Z" fill="white"/>
<path d="M105.5 63.5C104.7 60.7 107.833 56 109.5 54H111C112.2 54 117.167 58.6667 119.5 61C114.7 65.8 108.167 64.6667 105.5 63.5Z" fill="white"/>
<path d="M120 64.5C117.6 67.3 109.667 67.3333 106 67C105.2 68.2 112.667 71.8333 116.5 73.5C117.7 72.7 119.333 67.1667 120 64.5Z" fill="white"/>
<path d="M88.5 44C84.5 44 83.1667 49.6667 83 52.5C85.4 48.1 94 48.3333 98 49C94 44.5 93.5 44 88.5 44Z" fill="#FF4C46"/>
<path d="M120 37C116.4 37.4 114.833 41.8333 114.5 44V45.5C118.9 39.9 125.333 40.1667 128 41C126.8 37 122.167 36.6667 120 37Z" fill="#FF4C46"/>
</svg>
